<svg xmlns="http://www.w3.org/2000/svg" xmlns:xlink="http://www.w3.org/1999/xlink" id="Capa_1" x="0" y="0" version="1.1" viewBox="0 0 337.3 259.1" xml:space="preserve" style="enable-background:new 0 0 337.3 259.1"><style type="text/css">.st0{fill:#089439}</style><path d="M0,6.3c23.1,0,45.2,0.1,67.2-0.1c4.5,0,4.9,2.8,6,5.7c13.8,34.8,27.7,69.7,41.6,104.5c0.2,0.4,0.8,0.7,1.6,1.4	c11.5-26.4,22.9-52.8,34.5-79c5.1-11.6,10.5-23.1,15.7-34.7c0.8-1.7,1.3-3.8,3.3-4.1c2.7-0.5,2.6,2.5,3.2,3.8	c15.5,33.4,30.7,66.9,46.1,100.3c2,4.5,4.5,8.8,7,13.6c5-7.2,6.9-15.6,9.9-23.2c10.9-27.7,21-55.7,31.4-83.5c1-2.6,2-4.8,6-4.8	c21,0.3,42,0.1,63.9,0.1C302.7,91,268.2,175.1,233.8,259.1l-2.8-0.5c-7-14.6-14.2-29.1-21-43.8c-9.6-20.7-19-41.5-28.5-62.2	c-3.2-7.1-6.4-14.2-10-21.1c-0.7-1.3-0.5-4.4-3.1-3.7c-1.1,0.3-1.9,2.2-2.5,3.6c-17.8,40.3-36.3,80.3-55.4,120	c-1.1,2.3-1,6.2-4.6,6.2c-3.7,0-3.6-3.9-4.6-6.3c-17.5-42.6-34.9-85.2-52.5-127.8c-14.8-35.9-30-71.6-45-107.4	C2.5,13.3,1.5,10.3,0,6.3z" class="st0"/></svg>