<svg xmlns="http://www.w3.org/2000/svg" xmlns:xlink="http://www.w3.org/1999/xlink" id="Capa_1" x="0" y="0" version="1.1" viewBox="0 0 123.3 23.5" xml:space="preserve" style="enable-background:new 0 0 123.3 23.5"><style type="text/css">.st0{fill:#42a4d9}</style><polygon points="0 23.5 0 20.8 15.6 20.8 15.6 7.8 7.8 7.8 7.8 12.9 5.2 12.9 5.2 10.3 5.2 5.1 15.6 5.1 18.2 5.1 18.2 10.3 18.2 20.8 18.2 23.5" class="st0"/><polygon points="0 -.1 23.3 -.1 23.3 20.8 23.3 23.5 20.8 23.5 20.8 20.8 20.8 2.5 2.6 2.5 2.6 15.6 10.4 15.6 10.4 10.3 13 10.3 13 15.6 13 18.2 13 18.2 2.6 18.2 0 18.2 0 15.6" class="st0"/><path d="M29.2,22.5c0,0.4,0.3,0.6,0.6,0.6c0.4,0,0.5-0.2,0.5-0.4c0-0.1-0.1-0.3-0.2-0.3c-0.2-0.1-0.4-0.1-0.8-0.2	c-0.4-0.1-0.6-0.4-0.6-0.7c0-0.5,0.5-0.8,0.9-0.8c0.5,0,1,0.3,1,0.8h-0.4c0-0.3-0.2-0.5-0.6-0.5c-0.2,0-0.5,0.1-0.5,0.3	c0,0.2,0.1,0.3,0.3,0.3c0,0,0.6,0.2,0.7,0.2c0.3,0.1,0.5,0.4,0.5,0.7c0,0.6-0.5,0.8-1,0.8c-0.6,0-1.1-0.3-1.1-0.9L29.2,22.5z" class="st0"/><path d="M34.1,22.2c0,0.7-0.5,1.4-1.2,1.4s-1.2-0.6-1.2-1.4s0.5-1.4,1.2-1.4S34.1,21.3,34.1,22.2z M32.1,22.2	c0,0.5,0.2,1,0.8,1c0.5,0,0.8-0.5,0.8-1s-0.2-1-0.8-1S32.1,21.7,32.1,22.2L32.1,22.2z" class="st0"/><path d="M35.1,20.8h0.4V23h1.3v0.4h-1.7V20.8z" class="st0"/><path d="M37.7,20.8h0.5v1.5c0,0.3,0,0.7,0.6,0.7s0.6-0.4,0.6-0.7v-1.5h0.4v1.6c0,0.7-0.4,1-1,1s-1.1-0.3-1.1-1V20.8z" class="st0"/><path d="M42.6,21.7c-0.1-0.3-0.3-0.5-0.6-0.5c-0.5,0-0.8,0.5-0.8,1s0.2,1,0.8,1c0.4,0,0.6-0.3,0.7-0.7h0.4	c0,0.6-0.5,1-1.1,1c-0.8,0-1.2-0.6-1.2-1.4s0.5-1.4,1.2-1.4c0.6,0,1,0.3,1.1,0.9L42.6,21.7z" class="st0"/><path d="M44,20.8h0.5v2.6h-0.4L44,20.8L44,20.8z" class="st0"/><path d="M48,22.2c0,0.7-0.5,1.4-1.2,1.4c-0.8,0-1.2-0.6-1.2-1.4s0.5-1.4,1.2-1.4S48,21.3,48,22.2z M46,22.2	c0,0.5,0.2,1,0.8,1s0.8-0.5,0.8-1s-0.2-1-0.8-1S45.9,21.7,46,22.2L46,22.2z" class="st0"/><path d="M48.9,20.8h0.5l1.2,1.9l0,0v-1.9H51v2.6h-0.5l-1.2-1.9l0,0v1.9h-0.4C48.9,23.5,48.9,20.8,48.9,20.8z" class="st0"/><path d="M52.1,20.8h1.8v0.4h-1.4V22h1.3v0.4h-1.3v0.8h1.4v0.4H52v-2.7H52.1z" class="st0"/><path d="M55.3,22.5c0,0.4,0.3,0.6,0.6,0.6c0.4,0,0.5-0.2,0.5-0.4c0-0.1-0.1-0.3-0.2-0.3c-0.2-0.1-0.4-0.1-0.8-0.2	c-0.4-0.1-0.6-0.4-0.6-0.7c0-0.5,0.5-0.8,0.9-0.8c0.5,0,1,0.3,1,0.8h-0.4c0-0.3-0.2-0.5-0.6-0.5c-0.2,0-0.5,0.1-0.5,0.3	c0,0.2,0.1,0.3,0.3,0.3c0,0,0.6,0.2,0.7,0.2c0.3,0.1,0.5,0.4,0.5,0.7c0,0.6-0.5,0.8-1,0.8c-0.6,0-1.1-0.3-1.1-0.9L55.3,22.5z" class="st0"/><path d="M59.5,20.8h1.1c0.7,0,0.9,0.5,0.9,0.8s-0.1,0.8-0.9,0.8h-0.7v1h-0.4V20.8z M59.9,22h0.7c0.2,0,0.4-0.1,0.4-0.4	s-0.2-0.4-0.4-0.4h-0.7V22z" class="st0"/><path d="M63,20.8h0.5l1,2.6H64l-0.2-0.7h-1l-0.2,0.7h-0.5L63,20.8z M62.8,22.3h0.8l-0.4-1.1l0,0L62.8,22.3z" class="st0"/><path d="M65.3,20.8h1.2c0.6,0,0.8,0.3,0.8,0.7c0,0.5-0.3,0.6-0.4,0.7l0,0c0.2,0,0.4,0.1,0.4,0.5c0,0.3,0,0.6,0.1,0.7	h-0.5c-0.1-0.1-0.1-0.2-0.1-0.4c0-0.5-0.1-0.7-0.5-0.7h-0.7v1.1h-0.4L65.3,20.8z M65.7,22h0.8c0.3,0,0.4-0.1,0.4-0.4	s-0.2-0.4-0.4-0.4h-0.7L65.7,22z" class="st0"/><path d="M69.2,20.8h0.5l1,2.6h-0.5L70,22.8h-1l-0.2,0.7h-0.5L69.2,20.8z M69,22.3h0.8l-0.4-1.1l0,0L69,22.3z" class="st0"/><path d="M73.1,20.8h0.4v1.5c0,0.3,0,0.7,0.6,0.7s0.6-0.4,0.6-0.7v-1.5h0.4v1.6c0,0.7-0.4,1-1.1,1s-1.1-0.3-1.1-1v-1.6	H73.1z" class="st0"/><path d="M76.3,20.8h0.5l1.2,1.9l0,0v-1.9h0.4v2.6h-0.5l-1.2-1.9l0,0v1.9h-0.4V20.8z" class="st0"/><path d="M80.2,20.8h0.5l1,2.6h-0.5L81,22.8h-1l-0.2,0.7h-0.5L80.2,20.8z M80,22.3h0.8l-0.4-1.1l0,0L80,22.3z" class="st0"/><path d="M84.1,20.8h0.6l0.7,2l0,0l0.7-2h0.6v2.6h-0.4v-2l0,0l-0.7,2h-0.4l-0.7-2l0,0v2h-0.4L84.1,20.8z" class="st0"/><path d="M87.9,20.8h1.8v0.4h-1.4V22h1.3v0.4h-1.3v0.8h1.4v0.4h-1.9L87.9,20.8L87.9,20.8z" class="st0"/><path d="M92.1,22.5c0,0.4-0.1,0.9-0.8,0.9c-0.5,0-0.8-0.4-0.8-0.8v-0.1h0.4v0.1c0,0.3,0.1,0.5,0.4,0.5s0.4-0.2,0.4-0.5	v-1.8h0.5L92.1,22.5L92.1,22.5z" class="st0"/><path d="M95.6,22.2c0,0.7-0.5,1.4-1.2,1.4c-0.8,0-1.2-0.6-1.2-1.4s0.5-1.4,1.2-1.4S95.6,21.3,95.6,22.2z M93.6,22.2	c0,0.5,0.2,1,0.8,1c0.5,0,0.8-0.5,0.8-1s-0.2-1-0.8-1C93.8,21.2,93.6,21.7,93.6,22.2L93.6,22.2z" class="st0"/><path d="M96.6,20.8h1.2c0.6,0,0.8,0.3,0.8,0.7c0,0.5-0.3,0.6-0.4,0.7l0,0c0.2,0,0.4,0.1,0.4,0.5c0,0.3,0,0.6,0.1,0.7	h-0.5c-0.1-0.1-0.1-0.2-0.1-0.4c0-0.5-0.1-0.7-0.5-0.7h-0.7v1.1h-0.4L96.6,20.8z M97,22h0.7c0.3,0,0.4-0.1,0.4-0.4s-0.2-0.4-0.4-0.4	H97V22z" class="st0"/><path d="M101.6,22.5c0,0.4,0.3,0.6,0.6,0.6c0.4,0,0.5-0.2,0.5-0.4c0-0.1-0.1-0.3-0.2-0.3c-0.2-0.1-0.4-0.1-0.8-0.2	c-0.4-0.1-0.6-0.4-0.6-0.7c0-0.5,0.5-0.8,0.9-0.8c0.5,0,1,0.3,1,0.8h-0.4c0-0.3-0.2-0.5-0.6-0.5c-0.2,0-0.5,0.1-0.5,0.3	c0,0.2,0.1,0.3,0.3,0.3c0,0,0.6,0.2,0.7,0.2c0.3,0.1,0.5,0.4,0.5,0.7c0,0.6-0.5,0.8-1,0.8c-0.6,0-1.1-0.3-1.1-0.9L101.6,22.5z" class="st0"/><path d="M106.5,22.2c0,0.7-0.5,1.4-1.2,1.4s-1.2-0.6-1.2-1.4s0.5-1.4,1.2-1.4S106.5,21.3,106.5,22.2z M104.5,22.2	c0,0.5,0.2,1,0.8,1s0.8-0.5,0.8-1s-0.2-1-0.8-1C104.8,21.2,104.5,21.7,104.5,22.2L104.5,22.2z" class="st0"/><path d="M109.3,21.7c-0.1-0.3-0.3-0.5-0.6-0.5c-0.5,0-0.8,0.5-0.8,1s0.2,1,0.8,1c0.4,0,0.6-0.3,0.7-0.7h0.4	c0,0.6-0.5,1-1.1,1c-0.8,0-1.2-0.6-1.2-1.4s0.5-1.4,1.2-1.4c0.6,0,1,0.3,1.1,0.9h-0.5V21.7z" class="st0"/><path d="M110.7,20.8h0.4v2.6h-0.4V20.8z" class="st0"/><path d="M112.3,20.8h1.8v0.4h-1.4V22h1.3v0.4h-1.3v0.8h1.4v0.4h-1.9L112.3,20.8z" class="st0"/><path d="M115.1,20.8h1.1c0.8,0,1.1,0.6,1.1,1.3c0,0.7-0.3,1.3-1.1,1.3h-1.1V20.8z M115.6,23h0.4c0.7,0,0.9-0.4,0.9-0.9	s-0.2-0.9-0.9-0.9h-0.4V23z" class="st0"/><path d="M118.9,20.8h0.5l1,2.6h-0.5l-0.2-0.7h-1l-0.2,0.7H118L118.9,20.8z M118.7,22.3h0.8l-0.4-1.1l0,0L118.7,22.3z" class="st0"/><path d="M121,20.8h1.1c0.8,0,1.1,0.6,1.1,1.3c0,0.7-0.3,1.3-1.1,1.3H121V20.8z M121.5,23h0.4c0.7,0,0.9-0.4,0.9-0.9	s-0.1-0.9-0.9-0.9h-0.4V23z" class="st0"/><path d="M33.7,5.1h2.4l5,13.1h-2.4l-1.2-3.5h-5.2l-1.2,3.5h-2.3L33.7,5.1z M32.9,13.1h4L35,7.5h-0.1L32.9,13.1z" class="st0"/><path d="M39.5,5.1H50v2h-4.1v11.1h-2.3V7.1h-4.1V5.1z" class="st0"/><path d="M52.4,5.1h2.3v5.2h5.8V5.1h2.3v13.1h-2.3v-5.9h-5.9v5.9h-2.3V5.1H52.4z" class="st0"/><path d="M65.4,5.1h9.3v2h-7.1v3.4h6.5v1.9h-6.5v3.8h7.2v2h-9.4V5.1z" class="st0"/><path d="M77.5,5.1h2.4l5.9,9.6l0,0V5.1H88v13.1h-2.4l-5.9-9.6h-0.1v9.6h-2.1V5.1z" class="st0"/><path d="M90.6,5.1H96c4,0,5.7,2.9,5.7,6.5s-1.7,6.5-5.7,6.5h-5.4V5.1z M92.8,16.3H95c3.6,0,4.3-2,4.3-4.7	S98.5,6.9,95,6.9h-2.2V16.3z" class="st0"/><path d="M107.1,5.1h2.4l5,13.1h-2.4l-1.2-3.5h-5.2l-1.2,3.5h-2.3L107.1,5.1z M106.3,13.1h4l-1.9-5.6h-0.1L106.3,13.1z" class="st0"/><path d="M112.8,5.1h10.5v2h-4.1v11.1h-2.3V7.1h-4.1V5.1z" class="st0"/></svg>